Coordinates
version=1
nRows=7
nColumns=40
inDegrees=yes

Units are S.I. units (second, meters, Newtons, ...)
Angles are in degrees.

endheader
time	pelvis_tilt	pelvis_list	pelvis_rotation	pelvis_tx	pelvis_ty	pelvis_tz	hip_flexion_r	hip_adduction_r	hip_rotation_r	knee_angle_r	knee_angle_r_beta	ankle_angle_r	subtalar_angle_r	mtp_angle_r	hip_flexion_l	hip_adduction_l	hip_rotation_l	knee_angle_l	knee_angle_l_beta	ankle_angle_l	subtalar_angle_l	mtp_angle_l	lumbar_extension	lumbar_bending	lumbar_rotation	arm_flex_r	arm_add_r	arm_rot_r	elbow_flex_r	pro_sup_r	wrist_flex_r	wrist_dev_r	arm_flex_l	arm_add_l	arm_rot_l	elbow_flex_l	pro_sup_l	wrist_flex_l	wrist_dev_l
     40.42750000	     -5.03153671	     -5.59940463	     14.10218006	      0.98913586	      0.92049189	      0.48185776	      1.10360979	      2.55215061	    -19.80644689	     15.08900757	     15.08900757	     16.66083707	     -5.58498278	     -1.65441575	     27.61622836	     -6.67004271	      5.53316394	     24.94453915	     24.94453915	      7.69788521	     -5.26773092	     -0.09136330	     -7.95944828	      2.88184622	      5.25964468	     56.75752826	    -17.73046489	     -6.39767577	     80.15003275	     44.65682460	      0.00000000	      0.00000000	    -15.17820448	    -11.54645830	     23.73734385	     30.81787032	     42.91859168	      0.00000000	      0.00000000
     40.44942857	     -5.18450483	     -5.66408937	     13.54104068	      0.98935172	      0.92141781	      0.47684760	      1.01365082	      2.19121795	    -19.49615942	     15.25060594	     15.25060594	     16.26475804	     -5.31441439	     -1.61490407	     27.24694132	     -6.62054399	      5.09128475	     24.92078132	     24.92078132	      8.11095891	     -5.49014098	     -0.15330228	     -7.85231704	      2.96213886	      5.22013002	     56.18168775	    -17.39550765	     -6.24182078	     79.90420862	     44.65939043	      0.00000000	      0.00000000	    -14.54581462	    -11.82749823	     23.63910872	     30.93645012	     42.94775067	      0.00000000	      0.00000000
     40.47135714	     -5.37831149	     -5.52658573	     12.91259560	      0.98951265	      0.92252463	      0.47175983	      1.10337074	      1.48960996	    -19.33915217	     15.77237410	     15.77237410	     15.91702655	     -4.85436676	     -1.83896629	     26.64872624	     -6.41388883	      4.34086388	     24.52783959	     24.52783959	      8.51853792	     -5.41867485	     -0.09279068	     -7.75027182	      2.79006949	      5.27086672	     55.32351205	    -17.27201421	     -6.22225678	     79.05715507	     44.69117088	      0.00000000	      0.00000000	    -13.81992001	    -12.10379711	     23.45609476	     31.01713954	     43.00991758	      0.00000000	      0.00000000
     40.49328571	     -5.52057900	     -5.47601436	     12.29844940	      0.98970155	      0.92368486	      0.46659147	      1.22193133	      0.86053684	    -19.17382776	     16.39398009	     16.39398009	     15.52729264	     -4.35647915	     -2.10544676	     26.07614416	     -6.27259114	      3.70814515	     24.22147938	     24.22147938	      8.83180471	     -5.39024042	     -0.07852215	     -7.59188780	      2.79399015	      5.22155596	     54.35683281	    -17.04093439	     -6.21430508	     78.18778967	     44.72348598	      0.00000000	      0.00000000	    -12.98702942	    -12.31504737	     23.26642598	     31.08495930	     43.07538388	      0.00000000	      0.00000000
     40.51521429	     -5.64143094	     -5.41103040	     11.66532498	      0.98983778	      0.92484875	      0.46143280	      1.42456871	      0.17659515	    -18.99545615	     17.19384736	     17.19384736	     15.13106200	     -3.88718963	     -2.45277973	     25.43719680	     -6.11303717	      3.06341838	     23.83723004	     23.83723004	      9.12873514	     -5.39958344	     -0.09300164	     -7.49095564	      2.81869543	      5.15482096	     53.12855443	    -16.75270445	     -6.21230107	     77.15115714	     44.76061984	      0.00000000	      0.00000000	    -11.99847511	    -12.48567059	     23.05403071	     31.13188785	     43.14809188	      0.00000000	      0.00000000
     40.53714286	     -5.73011699	     -5.32646076	     11.01111755	      0.98992330	      0.92599062	      0.45620441	      1.73369931	     -0.59003204	    -18.83459207	     18.23553556	     18.23553556	     14.74309384	     -3.40652112	     -3.00115471	     24.76388463	     -5.91680612	      2.42903435	     23.44679485	     23.44679485	      9.34910410	     -5.53433815	     -0.11613469	     -7.40203175	      2.86070832	      5.04966399	     51.67845133	    -16.49603695	     -6.28036385	     75.77872077	     44.81283167	      0.00000000	      0.00000000	    -10.82550411	    -12.58052930	     22.79128085	     31.06232679	     43.24112119	      0.00000000	      0.00000000
     40.55907143	     -5.77451057	     -5.22059159	     10.38556226	      0.99004325	      0.92701911	      0.45088981	      2.04546940	     -1.40545231	    -18.66967487	     19.35333892	     19.35333892	     14.15673000	     -2.93833103	     -4.13665699	     24.06145588	     -5.63215930	      2.01332901	     23.08357906	     23.08357906	      9.50443889	     -5.98736800	     -0.22039370	     -7.31766602	      2.94238434	      4.81934824	     50.10296418	    -16.03040102	     -6.45156518	     73.72815377	     44.90537684	      0.00000000	      0.00000000	     -9.45057886	    -12.46798109	     22.30132515	     30.39774107	     43.42993018	      0.00000000	      0.00000000
